HIERARCHY
ROOT Hips
{
    OFFSET 0.000000 0.000000 0.000000
    CHANNELS 6 Xposition Yposition Zposition Zrotation Xrotation Yrotation
    JOINT Spine
    {
        OFFSET 0.000002 7.164412 0.000002
        CHANNELS 3 Zrotation Xrotation Yrotation
        JOINT Spine1
        {
            OFFSET -0.000001 20.126801 -0.000002
            CHANNELS 3 Zrotation Xrotation Yrotation
            JOINT Neck
            {
                OFFSET 0.000000 21.094069 0.000000
                CHANNELS 3 Zrotation Xrotation Yrotation
                JOINT Head
                {
                    OFFSET -0.000001 12.838277 1.776080
                    CHANNELS 3 Zrotation Xrotation Yrotation
                    End Site
                    {
                        OFFSET 0.000000 17.760757 0.000000
                    }
                }
            }
            JOINT LeftShoulder
            {
                OFFSET 3.550527 15.465700 -0.908803
                CHANNELS 3 Zrotation Xrotation Yrotation
                JOINT LeftArm
                {
                    OFFSET 12.513296 -0.000006 -0.000002
                    CHANNELS 3 Zrotation Xrotation Yrotation
                    JOINT LeftForeArm
                    {
                        OFFSET 24.225996 -0.000003 0.000001
                        CHANNELS 3 Zrotation Xrotation Yrotation
                        JOINT LeftHand
                        {
                            OFFSET 20.711399 -0.000005 -0.000004
                            CHANNELS 3 Zrotation Xrotation Yrotation
                            JOINT LeftHandThumb1
                            {
                                OFFSET 2.121969 -2.411331 3.375859
                                CHANNELS 3 Zrotation Xrotation Yrotation
                                JOINT LeftHandThumb2
                                {
                                    OFFSET 2.803208 0.000003 0.000001
                                    CHANNELS 3 Zrotation Xrotation Yrotation
                                    JOINT LeftHandThumb3
                                    {
                                        OFFSET 2.395929 0.000004 -0.000003
                                        CHANNELS 3 Zrotation Xrotation Yrotation
                                        End Site
                                        {
                                            OFFSET 2.127676 0.000000 0.000000
                                        }
                                    }
                                }
                            }
                            JOINT LeftHandIndex1
                            {
                                OFFSET 8.680775 0.000005 3.375860
                                CHANNELS 3 Zrotation Xrotation Yrotation
                                JOINT LeftHandIndex2
                                {
                                    OFFSET 4.218178 -0.000000 -0.000000
                                    CHANNELS 3 Zrotation Xrotation Yrotation
                                    JOINT LeftHandIndex3
                                    {
                                        OFFSET 2.109086 -0.000004 0.000002
                                        CHANNELS 3 Zrotation Xrotation Yrotation
                                        End Site
                                        {
                                            OFFSET 1.872952 0.000000 0.000000
                                        }
                                    }
                                }
                            }
                            JOINT LeftHandMiddle1
                            {
                                OFFSET 8.680778 -0.000002 1.118860
                                CHANNELS 3 Zrotation Xrotation Yrotation
                                JOINT LeftHandMiddle2
                                {
                                    OFFSET 4.640003 -0.000004 -0.000001
                                    CHANNELS 3 Zrotation Xrotation Yrotation
                                    JOINT LeftHandMiddle3
                                    {
                                        OFFSET 2.530911 0.000002 -0.000001
                                        CHANNELS 3 Zrotation Xrotation Yrotation
                                        End Site
                                        {
                                            OFFSET 2.247544 0.000000 0.000000
                                        }
                                    }
                                }
                            }
                            JOINT LeftHandRing1
                            {
                                OFFSET 8.198517 0.000004 -1.118860
                                CHANNELS 3 Zrotation Xrotation Yrotation
                                JOINT LeftHandRing2
                                {
                                    OFFSET 4.218183 -0.000002 -0.000002
                                    CHANNELS 3 Zrotation Xrotation Yrotation
                                    JOINT LeftHandRing3
                                    {
                                        OFFSET 2.109094 0.000005 -0.000000
                                        CHANNELS 3 Zrotation Xrotation Yrotation
                                        End Site
                                        {
                                            OFFSET 1.872952 0.000000 0.000000
                                        }
                                    }
                                }
                            }
                            JOINT LeftHandPinky1
                            {
                                OFFSET 7.716254 0.000002 -3.375863
                                CHANNELS 3 Zrotation Xrotation Yrotation
                                JOINT LeftHandPinky2
                                {
                                    OFFSET 3.374536 0.000002 0.000001
                                    CHANNELS 3 Zrotation Xrotation Yrotation
                                    JOINT LeftHandPinky3
                                    {
                                        OFFSET 1.687274 -0.000002 -0.000004
                                        CHANNELS 3 Zrotation Xrotation Yrotation
                                        End Site
                                        {
                                            OFFSET 1.498360 0.000000 0.000000
                                        }
                                    }
                                }
                            }
                        }
                    }
                }
            }
            JOINT RightShoulder
            {
                OFFSET -3.550529 15.465699 -0.908801
                CHANNELS 3 Zrotation Xrotation Yrotation
                JOINT RightArm
                {
                    OFFSET -12.513299 -0.000001 -0.000000
                    CHANNELS 3 Zrotation Xrotation Yrotation
                    JOINT RightForeArm
                    {
                        OFFSET -24.226000 -0.000003 -0.000001
                        CHANNELS 3 Zrotation Xrotation Yrotation
                        JOINT RightHand
                        {
                            OFFSET -20.711397 -0.000003 -0.000002
                            CHANNELS 3 Zrotation Xrotation Yrotation
                            JOINT RightHandThumb1
                            {
                                OFFSET -2.121970 -2.411331 3.375859
                                CHANNELS 3 Zrotation Xrotation Yrotation
                                JOINT RightHandThumb2
                                {
                                    OFFSET -2.803209 -0.000004 0.000004
                                    CHANNELS 3 Zrotation Xrotation Yrotation
                                    JOINT RightHandThumb3
                                    {
                                        OFFSET -2.395928 0.000004 -0.000003
                                        CHANNELS 3 Zrotation Xrotation Yrotation
                                        End Site
                                        {
                                            OFFSET -2.127676 0.000000 0.000000
                                        }
                                    }
                                }
                            }
                            JOINT RightHandIndex1
                            {
                                OFFSET -8.680779 0.000001 3.375859
                                CHANNELS 3 Zrotation Xrotation Yrotation
                                JOINT RightHandIndex2
                                {
                                    OFFSET -4.218179 0.000003 -0.000001
                                    CHANNELS 3 Zrotation Xrotation Yrotation
                                    JOINT RightHandIndex3
                                    {
                                        OFFSET -2.109090 -0.000002 0.000000
                                        CHANNELS 3 Zrotation Xrotation Yrotation
                                        End Site
                                        {
                                            OFFSET -1.872952 0.000000 0.000000
                                        }
                                    }
                                }
                            }
                            JOINT RightHandMiddle1
                            {
                                OFFSET -8.680779 -0.000002 1.118859
                                CHANNELS 3 Zrotation Xrotation Yrotation
                                JOINT RightHandMiddle2
                                {
                                    OFFSET -4.639998 0.000003 -0.000001
                                    CHANNELS 3 Zrotation Xrotation Yrotation
                                    JOINT RightHandMiddle3
                                    {
                                        OFFSET -2.530910 -0.000000 -0.000000
                                        CHANNELS 3 Zrotation Xrotation Yrotation
                                        End Site
                                        {
                                            OFFSET -2.247544 0.000000 0.000000
                                        }
                                    }
                                }
                            }
                            JOINT RightHandRing1
                            {
                                OFFSET -8.198519 -0.000004 -1.118859
                                CHANNELS 3 Zrotation Xrotation Yrotation
                                JOINT RightHandRing2
                                {
                                    OFFSET -4.218180 -0.000005 0.000000
                                    CHANNELS 3 Zrotation Xrotation Yrotation
                                    JOINT RightHandRing3
                                    {
                                        OFFSET -2.109090 0.000002 0.000002
                                        CHANNELS 3 Zrotation Xrotation Yrotation
                                        End Site
                                        {
                                            OFFSET -1.872952 0.000000 0.000000
                                        }
                                    }
                                }
                            }
                            JOINT RightHandPinky1
                            {
                                OFFSET -7.716249 0.000004 -3.375858
                                CHANNELS 3 Zrotation Xrotation Yrotation
                                JOINT RightHandPinky2
                                {
                                    OFFSET -3.374539 0.000003 -0.000000
                                    CHANNELS 3 Zrotation Xrotation Yrotation
                                    JOINT RightHandPinky3
                                    {
                                        OFFSET -1.687270 -0.000004 -0.000001
                                        CHANNELS 3 Zrotation Xrotation Yrotation
                                        End Site
                                        {
                                            OFFSET -1.498360 0.000000 0.000000
                                        }
                                    }
                                }
                            }
                        }
                    }
                }
            }
        }
    }
    JOINT LeftUpLeg
    {
        OFFSET 8.880377 0.000003 0.000001
        CHANNELS 3 Zrotation Xrotation Yrotation
        JOINT LeftLeg
        {
            OFFSET -0.000000 -40.387413 0.000001
            CHANNELS 3 Zrotation Xrotation Yrotation
            JOINT LeftFoot
            {
                OFFSET -0.000000 -36.911304 0.000000
                CHANNELS 3 Zrotation Xrotation Yrotation
                JOINT LeftToeBase
                {
                    OFFSET 0.000003 -5.772240 13.320597
                    CHANNELS 3 Zrotation Xrotation Yrotation
                    End Site
                    {
                        OFFSET 0.000000 0.000000 3.552151
                    }
                }
            }
        }
    }
    JOINT RightUpLeg
    {
        OFFSET -8.880380 -0.000003 -0.000001
        CHANNELS 3 Zrotation Xrotation Yrotation
        JOINT RightLeg
        {
            OFFSET 0.000001 -40.387405 0.000000
            CHANNELS 3 Zrotation Xrotation Yrotation
            JOINT RightFoot
            {
                OFFSET -0.000001 -36.911304 -0.000001
                CHANNELS 3 Zrotation Xrotation Yrotation
                JOINT RightToeBase
                {
                    OFFSET 0.000000 -5.772241 13.320600
                    CHANNELS 3 Zrotation Xrotation Yrotation
                    End Site
                    {
                        OFFSET 0.000000 0.000000 3.552151
                    }
                }
            }
        }
    }
}
MOTION
Frames: 4
Frame Time: 0.013889
73.640198    78.590492    -17.341578    -14.708147    4.456768    5.422314    0.406414    -12.360603    1.897906    -6.134210    12.065116    3.108083    -7.309023    -16.292067    -16.994183    16.425756    3.473266    -17.109291    -0.620186    -4.762435    -2.740578    -10.772034    15.576419    -25.960335    -59.531754    34.991947    -108.642677    1.444799    -24.186413    6.436098    38.333046    28.087822    -47.618458    -15.925278    -1.729662    23.256800    -0.000000    0.000000    -0.000000    6.022320    17.906982    3.871678    5.729575    0.000000    -0.000000    5.729582    -0.000000    -0.000002    2.794411    8.989480    2.427814    2.760068    0.000010    -0.000004    2.760061    0.000000    -0.000000    1.291197    -8.997754    4.657910    1.275305    0.000003    -0.000002    1.275304    -0.000007    0.000000    -0.220232    -17.999830    8.843824    -0.209452    0.000000    0.000000    -0.209454    -0.000000    0.000002    1.999476    5.135511    5.919430    51.717697    33.968552    5.812667    60.767292    -6.187414    86.548248    24.728672    -27.759726    -3.031399    -49.608940    17.976280    48.952087    8.205740    1.594221    -23.265951    -0.000000    0.000000    -0.000000    45.275246    12.879063    -4.665175    43.837975    -0.000007    0.000001    43.837967    0.000009    0.000005    33.913685    7.488029    -0.998387    33.585804    0.000003    -0.000003    33.585808    0.000007    0.000013    28.758085    -7.904932    -12.242369    28.459726    0.000000    -0.000002    28.459728    -0.000000    -0.000002    24.397285    -16.483730    -25.783966    23.333633    -0.000001    -0.000001    23.333632    -0.000001    -0.000001    16.811857    -24.190311    10.316365    0.000001    52.351715    -0.000001    7.371584    -23.462635    0.480794    -0.000000    2.193279    0.000001    15.248407    -41.756176    3.372012    -0.000001    70.581207    0.000001    3.516929    15.100137    -6.540483    0.000000    -3.011470    -0.000000    
73.564995    78.433571    -17.373934    -14.717479    4.422198    5.301367    0.419362    -12.358574    1.958629    -6.294688    12.122533    3.206507    -7.647223    -16.134663    -17.098543    16.286566    3.520567    -17.115301    -0.959494    -4.540840    -2.763066    -11.085138    15.628224    -25.747633    -59.605484    34.893715    -108.549156    0.690868    -24.152643    5.856395    38.472847    27.952570    -47.683701    -15.955357    -1.742590    23.255896    -0.000000    0.000000    -0.000000    6.022316    17.906973    3.871686    5.729577    -0.000000    -0.000003    5.729583    0.000000    -0.000000    2.624982    8.990709    2.454295    2.592707    0.000003    -0.000003    2.592710    0.000007    0.000002    1.037039    -8.998558    4.503311    1.024274    0.000010    -0.000000    1.024275    -0.000003    0.000002    -0.572163    -17.999113    8.505374    -0.544159    -0.000003    -0.000002    -0.544160    0.000000    0.000000    1.384339    5.099250    5.846585    51.860367    34.427608    6.141975    61.834373    -6.596181    86.480492    25.008934    -26.761362    -3.658674    -49.773651    17.673573    49.165359    8.115609    1.632952    -23.263412    -0.000000    0.000000    -0.000000    44.831474    12.976001    -2.906701    43.394722    0.000001    -0.000007    43.394737    0.000009    0.000000    34.239452    7.459617    -0.211165    33.910061    -0.000000    -0.000002    33.910072    0.000008    0.000010    29.470778    -7.851041    -9.790123    29.167725    0.000001    -0.000001    29.167732    -0.000001    -0.000001    25.525711    -16.341356    -20.755995    24.425404    -0.000000    -0.000001    24.425402    0.000000    0.000001    16.832567    -24.175056    10.274300    -0.000001    52.510693    0.000001    7.681553    -24.001884    0.894991    0.000000    2.357230    0.000001    15.534353    -41.938221    3.580115    -0.000001    70.950066    0.000002    3.288893    15.148204    -6.777994    -0.000001    -3.223310    -0.000000    
73.511177    78.259315    -17.449020    -14.690139    4.340635    5.102069    0.446807    -12.285779    2.098876    -6.395910    12.231547    3.374452    -8.030855    -15.947503    -17.199818    16.091276    3.546984    -17.093773    -1.456088    -4.416485    -2.895924    -11.388303    15.678464    -25.541910    -59.682762    34.742115    -108.430290    0.060270    -24.136786    5.511867    38.643044    27.788662    -47.758175    -15.971940    -1.749711    23.255388    -0.000000    0.000000    -0.000000    5.997892    17.907726    3.879192    5.706321    0.000000    -0.000000    5.706323    -0.000000    -0.000003    2.468756    8.991791    2.478704    2.438398    -0.000007    0.000002    2.438396    -0.000000    -0.000003    0.814458    -8.999112    4.373359    0.804433    0.000003    -0.000002    0.804431    -0.000000    -0.000002    -0.872209    -17.998011    8.222381    -0.829530    -0.000003    -0.000000    -0.829531    0.000003    -0.000003    0.769447    5.098706    5.680789    51.691860    35.007263    6.563779    62.264580    -6.641791    86.519829    24.411776    -26.709095    -4.173144    -49.728596    17.549576    49.380875    8.121820    1.630288    -23.263588    -0.000000    0.000000    -0.000000    44.206383    13.111158    -1.325461    42.770943    -0.000002    0.000004    42.770935    -0.000004    -0.000001    34.458874    7.440334    0.480465    34.128479    -0.000003    0.000001    34.128475    -0.000004    -0.000002    30.114355    -7.801337    -7.469173    29.807253    0.000000    0.000000    29.807253    0.000000    0.000000    26.620344    -16.197308    -15.982697    25.486025    0.000000    -0.000000    25.486029    0.000001    -0.000000    16.830591    -24.077610    10.304433    0.000003    52.628418    -0.000001    7.981207    -24.627333    1.253404    -0.000000    2.547390    -0.000001    15.849760    -42.108173    3.933119    -0.000001    71.340919    0.000001    3.089863    15.197876    -6.996056    -0.000000    -3.411596    -0.000000    
73.447479    78.000511    -17.576593    -14.603452    4.214226    4.932248    0.472112    -12.064219    2.257704    -6.584436    12.297305    3.576493    -8.537657    -15.734664    -17.420736    15.889938    3.538135    -17.156099    -2.089828    -4.234757    -3.154680    -11.744223    15.859442    -25.300550    -59.805805    34.500523    -108.241386    -1.156883    -24.060026    4.718502    38.912968    27.538202    -47.842232    -15.978425    -1.752502    23.255192    -0.000000    0.000000    -0.000000    5.637897    17.918467    3.989913    5.363611    0.000000    0.000002    5.363619    -0.000003    0.000000    2.138291    8.993846    2.530363    2.111992    0.000003    -0.000002    2.111990    0.000003    -0.000000    0.492241    -8.999676    4.224844    0.486177    -0.000003    0.000003    0.486180    0.000003    -0.000002    -1.198265    -17.996264    7.925430    -1.139631    -0.000003    -0.000000    -1.139630    -0.000000    0.000002    0.309835    5.147682    5.438883    51.072628    35.649826    6.993123    62.262569    -6.398614    86.646149    23.402344    -27.271986    -4.610892    -49.615208    17.420233    49.681915    8.152114    1.617266    -23.264448    -0.000000    0.000000    -0.000000    43.298325    13.304539    0.460346    41.866009    -0.000000    -0.000001    41.866001    0.000000    0.000001    34.727604    7.416578    1.234886    34.396008    0.000000    -0.000000    34.396008    -0.000001    0.000007    30.973286    -7.733462    -4.816496    30.660999    0.000002    -0.000001    30.660999    -0.000000    -0.000001    28.103882    -15.992792    -10.498217    26.926001    0.000000    -0.000001    26.926008    -0.000001    -0.000000    16.704260    -24.152695    10.124356    -0.000000    53.113857    0.000001    8.487226    -25.342323    1.897089    -0.000000    2.861325    -0.000002    16.098856    -42.406963    4.174960    -0.000003    71.982574    0.000004    3.025490    15.094013    -7.460848    0.000000    -3.606246    -0.000000    
